<svg width="500" height="500" viewBox="0 0 500 500" fill="none" xmlns="http://www.w3.org/2000/svg">
<path d="M51.08 268.53C51.08 268.53 53.41 340.69 113.65 388.78C173.89 436.87 257.34 440.32 324.91 444.89C392.48 449.46 444.38 411.2 452.2 353.38C460.02 295.56 408.39 278.59 380.38 212.77C352.37 146.95 354.86 125.31 295.59 84.83C236.32 44.35 143.59 69.21 95 138.56C46.41 207.91 51.08 268.53 51.08 268.53Z" fill="#D57D7D"/>
<path opacity="0.7" d="M51.08 268.53C51.08 268.53 53.41 340.69 113.65 388.78C173.89 436.87 257.34 440.32 324.91 444.89C392.48 449.46 444.38 411.2 452.2 353.38C460.02 295.56 408.39 278.59 380.38 212.77C352.37 146.95 354.86 125.31 295.59 84.83C236.32 44.35 143.59 69.21 95 138.56C46.41 207.91 51.08 268.53 51.08 268.53Z" fill="white"/>
<path d="M438.63 283.16H42.94" stroke="#263238" stroke-width="1.08162" stroke-miterlimit="10"/>
<path d="M115.52 167.84C115.52 165.09 116.79 163.07 119.65 163.07C122.51 163.07 123.83 165.07 123.83 167.84V177.5C123.83 180.25 122.56 182.27 119.65 182.27C116.74 182.27 115.52 180.27 115.52 177.5V167.84ZM116.76 177.58C116.76 179.58 117.57 181.14 119.65 181.14C121.73 181.14 122.59 179.63 122.59 177.58V167.76C122.59 165.76 121.75 164.2 119.65 164.2C117.55 164.2 116.76 165.71 116.76 167.76V177.58Z" fill="#263238"/>
<path d="M125.8 167.84C125.8 165.09 127.07 163.07 129.92 163.07C132.77 163.07 134.1 165.07 134.1 167.84V177.5C134.1 180.25 132.84 182.27 129.92 182.27C127 182.27 125.8 180.27 125.8 177.5V167.84ZM127.04 177.58C127.04 179.58 127.85 181.14 129.92 181.14C131.99 181.14 132.86 179.63 132.86 177.58V167.76C132.86 165.76 132.03 164.2 129.92 164.2C127.81 164.2 127.04 165.71 127.04 167.76V177.58Z" fill="#263238"/>
<path d="M140.06 163.23C142.98 163.23 144.11 165.07 144.11 167.82V169.87C144.11 172.87 142.73 174.34 139.74 174.34H137.39V182.11H136.15V163.23H140.06ZM139.74 173.23C141.92 173.23 142.87 172.23 142.87 169.97V167.76C142.87 165.71 142.17 164.39 140.06 164.39H137.39V173.23H139.74Z" fill="#263238"/>
<path d="M153.93 167.79V168.19H152.74V167.71C152.74 165.71 151.99 164.2 149.94 164.2C147.89 164.2 147.13 165.69 147.13 167.68C147.13 172.27 153.95 172.35 153.95 177.55C153.95 180.27 152.77 182.27 149.88 182.27C146.99 182.27 145.81 180.27 145.81 177.55V176.55H147V177.55C147 179.55 147.78 181.03 149.86 181.03C151.94 181.03 152.71 179.57 152.71 177.55C152.71 173.02 145.89 172.94 145.89 167.68C145.89 164.85 147.13 163.02 149.89 162.99C152.65 162.96 153.93 165.07 153.93 167.79Z" fill="#263238"/>
<path d="M157 179.74V182.11H155.79V179.74H157Z" fill="#263238"/>
<path d="M160.4 179.74V182.11H159.19V179.74H160.4Z" fill="#263238"/>
<path d="M163.77 179.74V182.11H162.56V179.74H163.77Z" fill="#263238"/>
<path d="M71.26 246.67L92.51 196.42H105.26V246.67H110.78V257.29H105.26V270.78H93.78V257.29H71.26V246.67ZM93.78 246.67V218.73L82 246.67H93.78Z" fill="#263238"/>
<path d="M115.14 214.26C115.14 202.37 121.41 195.57 132.88 195.57C144.35 195.57 150.62 202.37 150.62 214.26V252.93C150.62 264.83 144.35 271.63 132.88 271.63C121.41 271.63 115.14 264.83 115.14 252.93V214.26ZM126.82 253.68C126.82 258.99 129.16 261.01 132.88 261.01C136.6 261.01 138.94 259.01 138.94 253.68V213.52C138.94 208.21 136.6 206.19 132.88 206.19C129.16 206.19 126.82 208.19 126.82 213.52V253.68Z" fill="#263238"/>
<path d="M155.4 246.67L176.65 196.42H189.4V246.67H194.92V257.29H189.4V270.78H177.92V257.29H155.4V246.67ZM177.92 246.67V218.73L166.13 246.67H177.92Z" fill="#263238"/>
<path d="M76.38 288.64C79.24 288.64 80.38 290.44 80.38 293.13V295.13C80.38 298.06 79.03 299.52 76.1 299.52H73.8V307.12H72.55V288.64H76.38ZM76.07 298.42C78.21 298.42 79.13 297.42 79.13 295.22V293.05C79.13 291.05 78.45 289.75 76.38 289.75H73.77V298.42H76.07Z" fill="#263238"/>
<path d="M83.6 303L82.67 307.09H81.57L85.57 288.57H87.34L91.46 307.09H90.28L89.36 303H83.6ZM83.78 301.94H89.17L86.45 289.94L83.78 301.94Z" fill="#263238"/>
<path d="M101.23 293.16V294.53H100.06V293.08C100.06 291.08 99.3 289.59 97.26 289.59C95.22 289.59 94.46 291.1 94.46 293.08V302.7C94.46 304.7 95.23 306.16 97.26 306.16C99.29 306.16 100.06 304.68 100.06 302.7V298.7H97.61V297.6H101.23V302.6C101.23 305.27 100.06 307.27 97.23 307.27C94.4 307.27 93.23 305.27 93.23 302.6V293.14C93.23 290.47 94.39 288.46 97.23 288.46C100.07 288.46 101.23 290.49 101.23 293.16Z" fill="#263238"/>
<path d="M109.52 297.2V298.31H104.52V306H110.59V307.1H103.3V288.64H110.59V289.75H104.52V297.2H109.52Z" fill="#263238"/>
<path d="M117.74 307.13H116.63V288.64H118.22L123.77 304.25V288.64H124.88V307.13H123.53L117.74 290.65V307.13Z" fill="#263238"/>
<path d="M126.89 293.16C126.89 290.46 128.13 288.48 130.89 288.48C133.65 288.48 134.98 290.48 134.98 293.16V302.62C134.98 305.31 133.74 307.29 130.89 307.29C128.04 307.29 126.89 305.29 126.89 302.62V293.16ZM128.1 302.7C128.1 304.7 128.89 306.18 130.93 306.18C132.97 306.18 133.81 304.7 133.81 302.7V293.08C133.81 291.08 132.99 289.59 130.93 289.59C128.87 289.59 128.1 291.07 128.1 293.08V302.7Z" fill="#263238"/>
<path d="M140.15 307.13V289.75H136.4V288.64H145.14V289.75H141.37V307.13H140.15Z" fill="#263238"/>
<path d="M156.75 297.65V298.76H152V307.13H150.79V288.64H157.79V289.75H152V297.65H156.75Z" fill="#263238"/>
<path d="M159.55 293.16C159.55 290.46 160.79 288.48 163.55 288.48C166.31 288.48 167.65 290.48 167.65 293.16V302.62C167.65 305.31 166.4 307.29 163.55 307.29C160.7 307.29 159.55 305.29 159.55 302.62V293.16ZM160.76 302.7C160.76 304.7 161.56 306.18 163.59 306.18C165.62 306.18 166.47 304.7 166.47 302.7V293.08C166.47 291.08 165.65 289.59 163.59 289.59C161.53 289.59 160.76 291.07 160.76 293.08V302.7Z" fill="#263238"/>
<path d="M170.86 302.67C170.86 304.67 171.6 306.18 173.63 306.18C175.66 306.18 176.41 304.65 176.41 302.67V288.67H177.54V302.67C177.54 305.31 176.43 307.34 173.61 307.34C170.79 307.34 169.61 305.34 169.61 302.67V288.67H170.83L170.86 302.67Z" fill="#263238"/>
<path d="M180.74 307.13H179.63V288.64H181.22L186.77 304.25V288.64H187.88V307.13H186.53L180.74 290.65V307.13Z" fill="#263238"/>
<path d="M194 288.64C196.86 288.64 198.1 290.52 198.1 293.24V302.54C198.1 305.26 196.86 307.13 194 307.13H190V288.64H194ZM194 306C196.06 306 196.9 304.59 196.9 302.56V293.15C196.9 291.15 196.03 289.72 194 289.72H191.17V306H194Z" fill="#263238"/>
<path d="M415.66 82.14C415.66 82.14 415.66 77.2 408.75 70.3C401.84 63.4 397.4 59.44 397.4 59.44C397.4 59.44 393.95 70.79 400.4 77.7C405.11 82.5473 410.215 86.9959 415.66 91V82.14Z" fill="#A9292A"/>
<path d="M405.63 113C405.63 113 405.63 108.06 398.73 101.16C391.83 94.26 387.38 90.3 387.38 90.3C387.38 90.3 383.93 101.65 390.38 108.56C395.098 113.417 400.212 117.873 405.67 121.88L405.63 113Z" fill="#A9292A"/>
<path d="M415.22 90.54C415.22 90.54 415.75 85.63 423.34 79.49C430.93 73.35 435.77 69.9 435.77 69.9C435.77 69.9 438 81.55 430.9 87.74C425.696 92.0719 420.141 95.9621 414.29 99.37L415.22 90.54Z" fill="#A9292A"/>
<path d="M403.11 126.93C403.11 126.93 404.11 122.1 412.35 116.79C420.59 111.48 425.72 108.56 425.72 108.56C425.72 108.56 426.72 120.38 419 125.79C413.368 129.553 407.43 132.838 401.25 135.61L403.11 126.93Z" fill="#A9292A"/>
<path d="M405.39 166.6C405.39 166.6 405.39 161.66 412.3 154.76C419.21 147.86 423.64 143.9 423.64 143.9C423.64 143.9 427.1 155.25 420.64 162.16C415.922 167.017 410.808 171.473 405.35 175.48L405.39 166.6Z" fill="#A9292A"/>
<path d="M405.28 176.28C405.28 176.28 405.98 171.4 400.12 163.58C394.26 155.76 390.43 151.22 390.43 151.22C390.43 151.22 385.43 161.96 390.77 169.71C394.745 175.189 399.171 180.327 404 185.07L405.28 176.28Z" fill="#A9292A"/>
<path d="M398.47 205C398.47 205 398.47 200.07 405.37 193.16C412.27 186.25 416.72 182.3 416.72 182.3C416.72 182.3 420.17 193.65 413.72 200.56C409.005 205.42 403.891 209.876 398.43 213.88L398.47 205Z" fill="#A9292A"/>
<path d="M403.08 231C403.08 231 401.83 226.22 406.76 217.79C411.69 209.36 415 204.42 415 204.42C415 204.42 421.21 214.52 416.76 222.83C413.424 228.723 409.604 234.329 405.34 239.59L403.08 231Z" fill="#A9292A"/>
<path d="M416.28 80.87C415.933 86.0076 415.302 91.1221 414.39 96.19C411.66 110.3 404.84 119.4 402.11 132.14C399.38 144.88 407.21 161.29 405.11 177.66C403.01 194.03 396.65 203.12 398.47 214.05C400.29 224.98 409.84 254.54 409.84 254.54" stroke="#263238" stroke-width="1.08162" stroke-linecap="round" stroke-linejoin="round"/>
<path d="M415.16 93.82L422.6 88.11" stroke="#263238" stroke-width="1.08162" stroke-linecap="round" stroke-linejoin="round"/>
<path d="M415.5 87.24L412.39 81.7" stroke="#263238" stroke-width="1.08162" stroke-linecap="round" stroke-linejoin="round"/>
<path d="M402.52 131.55C402.52 131.55 408.75 126.88 415.16 122.21" stroke="#263238" stroke-width="1.08162" stroke-linecap="round" stroke-linejoin="round"/>
<path d="M405.63 121.83C405.63 121.83 400.44 111.65 394.56 104.9" stroke="#263238" stroke-width="1.08162" stroke-linecap="round" stroke-linejoin="round"/>
<path d="M405.64 173.62C409.205 167.06 413.706 161.054 419 155.79" stroke="#263238" stroke-width="1.08162" stroke-linecap="round" stroke-linejoin="round"/>
<path d="M404.42 180.54C402.531 176.089 400.273 171.805 397.67 167.73C394.04 162.36 393.52 161.67 393.52 161.67" stroke="#263238" stroke-width="1.08162" stroke-linecap="round" stroke-linejoin="round"/>
<path d="M398.47 214.05C400.045 210.128 401.921 206.333 404.08 202.7C406.235 199.33 408.667 196.146 411.35 193.18" stroke="#263238" stroke-width="1.08162" stroke-linecap="round" stroke-linejoin="round"/>
<path d="M405.33 239.59C404.969 235.846 405.611 232.074 407.19 228.66C409.79 223.66 412.73 217.06 413.94 214.47" stroke="#263238" stroke-width="1.08162" stroke-linecap="round" stroke-linejoin="round"/>
<path d="M370.43 148C370.43 148 369.89 144.91 373.48 139.83C377.07 134.75 379.41 131.83 379.41 131.83C379.41 131.83 382.81 138.57 379.54 143.6C377.11 147.157 374.383 150.502 371.39 153.6L370.43 148Z" fill="#A9292A"/>
<path d="M380.06 166.28C380.06 166.28 379.52 163.18 383.11 158.1C386.7 153.02 389.04 150.1 389.04 150.1C389.04 150.1 392.44 156.84 389.17 161.87C386.74 165.427 384.013 168.772 381.02 171.87L380.06 166.28Z" fill="#A9292A"/>
<path d="M371.61 153.27C371.61 153.27 370.75 150.27 365.32 147.22C359.89 144.17 356.49 142.55 356.49 142.55C356.49 142.55 356.35 150.1 361.49 153.21C365.224 155.362 369.131 157.198 373.17 158.7L371.61 153.27Z" fill="#A9292A"/>
<path d="M383.16 174.77C383.16 174.77 381.99 171.86 376.27 169.42C370.55 166.98 366.99 165.71 366.99 165.71C366.99 165.71 367.65 173.23 373.07 175.78C377.012 177.526 381.093 178.941 385.27 180.01L383.16 174.77Z" fill="#A9292A"/>
<path d="M386 199.89C386 199.89 385.46 196.8 380.38 193.22C375.3 189.64 372.09 187.64 372.09 187.64C372.09 187.64 371.15 195.13 375.92 198.77C379.396 201.299 383.075 203.537 386.92 205.46L386 199.89Z" fill="#A9292A"/>
<path d="M387.16 206C387.16 206 386.16 203 389.01 197.48C391.86 191.96 393.75 188.68 393.75 188.68C393.75 188.68 398.07 194.87 395.54 200.31C393.643 204.178 391.425 207.881 388.91 211.38L387.16 206Z" fill="#A9292A"/>
<path d="M395.83 230.91C395.83 230.91 396.19 227.79 401.06 223.91C405.93 220.03 409.06 217.91 409.06 217.91C409.06 217.91 410.42 225.34 405.86 229.24C402.527 231.97 398.972 234.415 395.23 236.55L395.83 230.91Z" fill="#A9292A"/>
<path d="M394.55 223.21C394.55 223.21 394.01 220.12 388.93 216.53C383.85 212.94 380.64 210.96 380.64 210.96C380.64 210.96 379.7 218.45 384.47 222.09C387.946 224.619 391.625 226.857 395.47 228.78L394.55 223.21Z" fill="#A9292A"/>
<path d="M394.48 240C394.48 240 394.74 236.87 390.74 232.12C386.74 227.37 384.13 224.62 384.13 224.62C384.13 224.62 381.32 231.62 385.02 236.36C387.759 239.693 390.769 242.794 394.02 245.63L394.48 240Z" fill="#A9292A"/>
<path d="M369.9 147.32C370.677 150.503 371.629 153.641 372.75 156.72C375.99 165.27 381.26 170.23 384.36 177.93C387.46 185.63 384.36 196.77 387.41 206.8C390.46 216.83 395.49 221.8 395.53 228.89C395.57 235.98 392.79 255.53 392.79 255.53" stroke="#263238" stroke-width="1.08162" stroke-linecap="round" stroke-linejoin="round"/>
<path d="M372.01 155.31L366.73 152.54" stroke="#263238" stroke-width="1.08162" stroke-linecap="round" stroke-linejoin="round"/>
<path d="M371.08 151.23L372.43 147.42" stroke="#263238" stroke-width="1.08162" stroke-linecap="round" stroke-linejoin="round"/>
<path d="M384 177.61C384 177.61 379.59 175.35 375.06 173.12" stroke="#263238" stroke-width="1.08162" stroke-linecap="round" stroke-linejoin="round"/>
<path d="M381 171.84C382.301 167.728 384.02 163.761 386.13 160" stroke="#263238" stroke-width="1.08162" stroke-linecap="round" stroke-linejoin="round"/>
<path d="M386.65 204.32C383.703 200.597 380.234 197.32 376.35 194.59" stroke="#263238" stroke-width="1.08162" stroke-linecap="round" stroke-linejoin="round"/>
<path d="M388.16 208.53C388.86 205.536 389.81 202.605 391 199.77C392.7 196.01 392.95 195.52 392.95 195.52" stroke="#263238" stroke-width="1.08162" stroke-linecap="round" stroke-linejoin="round"/>
<path d="M395.29 234.24C397.007 232.108 398.912 230.133 400.98 228.34C402.294 227.37 403.528 226.297 404.67 225.13" stroke="#263238" stroke-width="1.08162" stroke-linecap="round" stroke-linejoin="round"/>
<path d="M395.53 228.89C394.115 226.605 392.527 224.432 390.78 222.39C389.062 220.513 387.192 218.78 385.19 217.21" stroke="#263238" stroke-width="1.08162" stroke-linecap="round" stroke-linejoin="round"/>
<path d="M394 245.66C393.823 243.272 393.008 240.976 391.64 239.01C389.47 236.14 386.91 232.34 385.87 230.84" stroke="#263238" stroke-width="1.08162" stroke-linecap="round" stroke-linejoin="round"/>
<path d="M416.48 289.2H386.07C385.31 289.197 384.581 288.894 384.044 288.356C383.506 287.819 383.203 287.09 383.2 286.33L378.68 252.11H423.86L419.35 286.33C419.347 287.09 419.044 287.819 418.506 288.356C417.969 288.894 417.24 289.197 416.48 289.2Z" fill="#263238"/>
<path d="M423.47 258H378.68C377.744 258 376.846 257.628 376.184 256.966C375.522 256.304 375.15 255.406 375.15 254.47C375.149 254.006 375.239 253.545 375.416 253.116C375.593 252.687 375.852 252.296 376.18 251.967C376.508 251.639 376.898 251.378 377.327 251.2C377.756 251.022 378.216 250.93 378.68 250.93H423.47C423.935 250.93 424.395 251.022 424.825 251.199C425.254 251.377 425.644 251.638 425.973 251.967C426.302 252.296 426.563 252.686 426.741 253.115C426.918 253.545 427.01 254.005 427.01 254.47C427.007 255.407 426.633 256.305 425.97 256.967C425.306 257.628 424.407 258 423.47 258Z" fill="#263238"/>
<path d="M380.32 329.29C379.52 329.292 378.732 329.089 378.032 328.702C377.332 328.315 376.742 327.756 376.317 327.077C375.893 326.399 375.649 325.624 375.607 324.824C375.566 324.025 375.728 323.229 376.08 322.51C376.992 320.684 377.171 318.579 376.582 316.626C375.993 314.672 374.679 313.017 372.91 312C365.85 307.48 349.43 306.76 343.68 306.85H343.6C342.348 306.862 341.143 306.376 340.249 305.499C339.356 304.623 338.847 303.427 338.835 302.175C338.823 300.923 339.309 299.718 340.186 298.824C341.062 297.931 342.258 297.422 343.51 297.41C345.92 297.36 367.27 297.19 377.99 304.05C388.56 310.82 386.92 321.76 384.57 326.61C384.185 327.411 383.582 328.087 382.83 328.561C382.079 329.035 381.209 329.288 380.32 329.29Z" fill="#263238"/>
<path d="M402.08 354.19L401.04 357.72L385.29 331.82L384.88 326.23L402.08 354.19Z" fill="white" stroke="#263238" stroke-width="1.08162" stroke-linecap="round" stroke-linejoin="round"/>
<path d="M401.04 357.72L405.96 355.29L406.84 351.92L402.08 354.19L401.04 357.72Z" fill="white" stroke="#263238" stroke-width="1.08162" stroke-linecap="round" stroke-linejoin="round"/>
<path d="M382.81 323.33L401.04 322.7L406.84 351.92L402.08 354.19L382.81 323.33Z" fill="white" stroke="#263238" stroke-width="1.08162" stroke-linecap="round" stroke-linejoin="round"/>
<path d="M380.32 324.57L398.55 355.23L392.55 358.13L365.61 336.17L380.32 324.57Z" fill="white" stroke="#263238" stroke-width="1.08162" stroke-linecap="round" stroke-linejoin="round"/>
<path d="M392.55 358.13L391.72 361.24L364.58 339.69L365.61 336.17L392.55 358.13Z" fill="white" stroke="#263238" stroke-width="1.08162" stroke-linecap="round" stroke-linejoin="round"/>
<path d="M392.55 358.13L398.55 355.23L397.73 358.34L391.72 361.24L392.55 358.13Z" fill="white" stroke="#263238" stroke-width="1.08162" stroke-linecap="round" stroke-linejoin="round"/>
<path d="M390.434 335.627C394.042 332.019 394.042 326.168 390.434 322.56C386.825 318.951 380.975 318.951 377.366 322.56C373.758 326.168 373.758 332.019 377.366 335.627C380.975 339.236 386.825 339.236 390.434 335.627Z" fill="#EE3533" stroke="#263238" stroke-width="1.08162" stroke-linecap="round" stroke-linejoin="round"/>
<path d="M189.17 354.19L190.21 357.72L205.95 331.82L206.37 326.23L189.17 354.19Z" fill="white" stroke="#263238" stroke-width="1.08162" stroke-linecap="round" stroke-linejoin="round"/>
<path d="M190.21 357.72L185.29 355.29L184.41 351.92L189.17 354.19L190.21 357.72Z" fill="white" stroke="#263238" stroke-width="1.08162" stroke-linecap="round" stroke-linejoin="round"/>
<path d="M208.44 323.33L190.21 322.7L184.41 351.92L189.17 354.19L208.44 323.33Z" fill="white" stroke="#263238" stroke-width="1.08162" stroke-linecap="round" stroke-linejoin="round"/>
<path d="M210.93 324.57L192.69 355.23L198.7 358.13L225.63 336.17L210.93 324.57Z" fill="white" stroke="#263238" stroke-width="1.08162" stroke-linecap="round" stroke-linejoin="round"/>
<path d="M198.7 358.13L199.53 361.24L226.67 339.69L225.63 336.17L198.7 358.13Z" fill="white" stroke="#263238" stroke-width="1.08162" stroke-linecap="round" stroke-linejoin="round"/>
<path d="M198.7 358.13L192.69 355.23L193.52 358.34L199.53 361.24L198.7 358.13Z" fill="white" stroke="#263238" stroke-width="1.08162" stroke-linecap="round" stroke-linejoin="round"/>
<path d="M207.94 332.43C206.964 332.434 206.01 332.135 205.211 331.575C204.412 331.015 203.806 330.22 203.477 329.301C203.147 328.382 203.112 327.383 203.374 326.443C203.636 325.502 204.183 324.666 204.94 324.05C242.46 293.52 234.82 247.99 234.74 247.53C234.553 246.313 234.85 245.07 235.566 244.068C236.283 243.067 237.363 242.385 238.575 242.168C239.788 241.951 241.037 242.217 242.056 242.909C243.075 243.6 243.784 244.663 244.03 245.87C244.4 247.96 252.69 297.37 210.9 331.37C210.064 332.053 209.019 332.427 207.94 332.43Z" fill="#263238"/>
<path d="M262.751 237.472C264.378 227.397 257.528 217.91 247.453 216.283C237.377 214.657 227.89 221.506 226.264 231.582C224.637 241.658 231.487 251.145 241.562 252.771C251.638 254.398 261.125 247.548 262.751 237.472Z" fill="#ADADAD" stroke="#263238" stroke-width="1.08162" stroke-linecap="round" stroke-linejoin="round"/>
<path d="M213.877 335.624C217.485 332.015 217.485 326.165 213.877 322.557C210.269 318.948 204.418 318.948 200.81 322.557C197.201 326.165 197.201 332.015 200.81 335.624C204.418 339.232 210.269 339.232 213.877 335.624Z" fill="#EE3533" stroke="#263238" stroke-width="1.08162" stroke-linecap="round" stroke-linejoin="round"/>
<path d="M293.99 310.63C310.188 310.63 323.32 298.381 323.32 283.27C323.32 268.159 310.188 255.91 293.99 255.91C277.791 255.91 264.66 268.159 264.66 283.27C264.66 298.381 277.791 310.63 293.99 310.63Z" fill="#ADADAD" stroke="#263238" stroke-width="1.08162" stroke-linecap="round" stroke-linejoin="round"/>
<path d="M278.71 271.58L281.45 282.27C282.259 284.915 283.975 287.191 286.296 288.696C288.617 290.201 291.395 290.84 294.14 290.5C296.882 290.157 299.415 288.858 301.294 286.831C303.173 284.805 304.276 282.18 304.41 279.42L304.95 268.64L278.71 271.58Z" fill="#263238" stroke="#263238" stroke-width="1.08162" stroke-linecap="round" stroke-linejoin="round"/>
<path d="M336.53 217.79C333.763 217.83 331.005 217.453 328.35 216.67L329.11 214.44C329.24 214.44 342.37 218.71 355.74 208.93L357.13 210.84C351.19 215.314 343.966 217.751 336.53 217.79Z" fill="#263238"/>
<path d="M351.27 235.53C340.45 219.72 328.14 220.91 328.02 220.92L327.76 218.58C328.32 218.52 341.61 217.23 353.21 234.2L351.27 235.53Z" fill="#263238"/>
<path d="M348.53 246.7C334.53 242.39 326.12 223.75 325.76 222.96L327.92 221.96C328 222.15 336.26 240.41 349.23 244.4L348.53 246.7Z" fill="#263238"/>
<path d="M355.81 210.52L359.59 208" stroke="#263238" stroke-width="1.08162" stroke-miterlimit="10"/>
<path d="M351.19 232.77L353.71 237.8" stroke="#263238" stroke-width="1.08162" stroke-miterlimit="10"/>
<path d="M346.78 244.73C348.772 245.237 350.815 245.519 352.87 245.57" stroke="#263238" stroke-width="1.08162" stroke-miterlimit="10"/>
<path d="M240.63 214.32L244.12 238.73L330.97 229.85L330.65 204.49L240.63 214.32Z" fill="white" stroke="#263238" stroke-width="1.08162" stroke-linecap="round" stroke-linejoin="round"/>
<path d="M244.12 238.73L259.65 278.03L326.53 271.37L330.97 229.85L244.12 238.73Z" fill="#E5E5E5" stroke="#263238" stroke-width="1.08162" stroke-linecap="round" stroke-linejoin="round"/>
<path d="M265.07 249L271.17 267C271.605 268.299 272.476 269.407 273.636 270.136C274.795 270.865 276.171 271.17 277.53 271L304.32 268.08C305.672 267.915 306.927 267.291 307.874 266.312C308.82 265.332 309.402 264.057 309.52 262.7L311.18 243.77C311.236 243.15 311.153 242.526 310.938 241.942C310.722 241.358 310.379 240.829 309.934 240.395C309.489 239.96 308.952 239.63 308.363 239.428C307.775 239.227 307.148 239.159 306.53 239.23L268.6 243.47C267.974 243.539 267.372 243.747 266.837 244.079C266.303 244.411 265.849 244.859 265.511 245.39C265.172 245.92 264.957 246.52 264.88 247.145C264.804 247.77 264.869 248.404 265.07 249Z" fill="#263238"/>
<mask id="mask0_102_2" style="mask-type:luminance" maskUnits="userSpaceOnUse" x="264" y="239" width="48" height="33">
<path d="M265.07 249L271.17 267C271.605 268.299 272.476 269.407 273.636 270.136C274.795 270.865 276.171 271.17 277.53 271L304.32 268.08C305.672 267.915 306.927 267.291 307.874 266.312C308.82 265.332 309.402 264.057 309.52 262.7L311.18 243.77C311.236 243.15 311.153 242.526 310.938 241.942C310.722 241.358 310.379 240.829 309.934 240.395C309.489 239.96 308.952 239.63 308.363 239.428C307.775 239.227 307.148 239.159 306.53 239.23L268.6 243.47C267.974 243.539 267.372 243.747 266.837 244.079C266.303 244.411 265.849 244.859 265.511 245.39C265.172 245.92 264.957 246.52 264.88 247.145C264.804 247.77 264.869 248.404 265.07 249Z" fill="white"/>
</mask>
<g mask="url(#mask0_102_2)">
<path d="M265.07 258.89L276.13 257.91L279.64 248.38L287.9 263.23L292.1 252.16L294.2 255.67L314.24 253.28" stroke="white" stroke-width="1.08162" stroke-linecap="round" stroke-linejoin="round"/>
</g>
<path d="M265.07 249L271.17 267C271.605 268.299 272.476 269.407 273.636 270.136C274.795 270.865 276.171 271.17 277.53 271L304.32 268.08C305.672 267.915 306.927 267.291 307.874 266.312C308.82 265.332 309.402 264.057 309.52 262.7L311.18 243.77C311.236 243.15 311.153 242.526 310.938 241.942C310.722 241.358 310.379 240.829 309.934 240.395C309.489 239.96 308.952 239.63 308.363 239.428C307.775 239.227 307.148 239.159 306.53 239.23L268.6 243.47C267.974 243.539 267.372 243.747 266.837 244.079C266.303 244.411 265.849 244.859 265.511 245.39C265.172 245.92 264.957 246.52 264.88 247.145C264.804 247.77 264.869 248.404 265.07 249Z" stroke="#263238" stroke-width="1.08162" stroke-linecap="round" stroke-linejoin="round"/>
<path d="M320.89 246.18C323.574 246.18 325.75 244.004 325.75 241.32C325.75 238.636 323.574 236.46 320.89 236.46C318.206 236.46 316.03 238.636 316.03 241.32C316.03 244.004 318.206 246.18 320.89 246.18Z" fill="white" stroke="#263238" stroke-width="1.08162" stroke-linecap="round" stroke-linejoin="round"/>
<path d="M324.85 256.52C324.85 257.422 324.583 258.304 324.082 259.053C323.58 259.803 322.868 260.388 322.035 260.733C321.202 261.078 320.285 261.168 319.4 260.992C318.516 260.816 317.703 260.382 317.066 259.744C316.428 259.107 315.994 258.294 315.818 257.41C315.642 256.525 315.732 255.608 316.077 254.775C316.422 253.942 317.007 253.23 317.757 252.729C318.506 252.227 319.388 251.96 320.29 251.96C321.499 251.96 322.659 252.44 323.514 253.296C324.37 254.151 324.85 255.311 324.85 256.52Z" fill="#EE3533" stroke="#263238" stroke-width="1.08162" stroke-linecap="round" stroke-linejoin="round"/>
<path d="M261.72 246.6C261.997 247.52 261.995 248.502 261.715 249.421C261.434 250.34 260.887 251.155 260.144 251.764C259.4 252.372 258.492 252.747 257.536 252.839C256.579 252.932 255.617 252.739 254.77 252.285C253.923 251.831 253.23 251.136 252.778 250.288C252.326 249.439 252.135 248.476 252.231 247.52C252.326 246.564 252.703 245.657 253.313 244.915C253.923 244.173 254.74 243.628 255.66 243.35C256.271 243.164 256.913 243.1 257.549 243.163C258.185 243.226 258.802 243.413 259.366 243.715C259.929 244.017 260.427 244.428 260.831 244.923C261.235 245.418 261.537 245.988 261.72 246.6Z" fill="#EE3533" stroke="#263238" stroke-width="1.08162" stroke-linecap="round" stroke-linejoin="round"/>
<path d="M264.698 265.233C266.07 263.12 265.47 260.296 263.357 258.925C261.245 257.553 258.421 258.153 257.05 260.265C255.678 262.378 256.278 265.202 258.39 266.573C260.502 267.945 263.327 267.345 264.698 265.233Z" fill="white" stroke="#263238" stroke-width="1.08162" stroke-linecap="round" stroke-linejoin="round"/>
<path d="M276.37 315.18C283.506 315.18 289.29 309.601 289.29 302.72C289.29 295.839 283.506 290.26 276.37 290.26C269.234 290.26 263.45 295.839 263.45 302.72C263.45 309.601 269.234 315.18 276.37 315.18Z" fill="#EE3533" stroke="#263238" stroke-width="1.08162" stroke-linecap="round" stroke-linejoin="round"/>
<path d="M257.37 330.68L269.2 304.12C269.707 302.979 270.616 302.065 271.754 301.55C272.891 301.036 274.178 300.957 275.37 301.33C276.599 301.707 277.64 302.535 278.284 303.648C278.928 304.761 279.126 306.077 278.84 307.33L271.05 342.25L257.37 330.68Z" fill="#263238" stroke="#263238" stroke-width="1.08162" stroke-linecap="round" stroke-linejoin="round"/>
<path d="M253.42 290L279.25 350.79L248.25 355.05C248.25 355.05 229.71 336.2 217.25 300.34L253.42 290Z" fill="#ADADAD" stroke="#263238" stroke-width="1.08162" stroke-linecap="round" stroke-linejoin="round"/>
<path d="M253.42 289.95L254.63 284.18L280.47 346.18L279.25 350.74L253.42 289.95Z" fill="white" stroke="#263238" stroke-width="1.08162" stroke-linecap="round" stroke-linejoin="round"/>
<path d="M254.63 284.18L219.38 294.81L217.25 300.29L253.42 289.95L254.63 284.18Z" fill="white" stroke="#263238" stroke-width="1.08162" stroke-linecap="round" stroke-linejoin="round"/>
<path d="M219.68 306.06L255.24 295.12" stroke="#263238" stroke-width="1.08162" stroke-linecap="round" stroke-linejoin="round"/>
<path d="M222.41 312.44L258.28 302.72" stroke="#263238" stroke-width="1.08162" stroke-linecap="round" stroke-linejoin="round"/>
<path d="M225.15 319.13L261.32 309.41" stroke="#263238" stroke-width="1.08162" stroke-linecap="round" stroke-linejoin="round"/>
<path d="M229.1 327.34L264.36 317" stroke="#263238" stroke-width="1.08162" stroke-linecap="round" stroke-linejoin="round"/>
<path d="M232.84 333.86L268.01 324.6" stroke="#263238" stroke-width="1.08162" stroke-linecap="round" stroke-linejoin="round"/>
<path d="M236.7 339.82L271.05 331.59" stroke="#263238" stroke-width="1.08162" stroke-linecap="round" stroke-linejoin="round"/>
<path d="M241.15 345.55L273.17 337.98" stroke="#263238" stroke-width="1.08162" stroke-linecap="round" stroke-linejoin="round"/>
<path d="M244.3 350.23L276.11 344.97" stroke="#263238" stroke-width="1.08162" stroke-linecap="round" stroke-linejoin="round"/>
<path d="M310.78 315.18C317.916 315.18 323.7 309.601 323.7 302.72C323.7 295.839 317.916 290.26 310.78 290.26C303.644 290.26 297.86 295.839 297.86 302.72C297.86 309.601 303.644 315.18 310.78 315.18Z" fill="#EE3533" stroke="#263238" stroke-width="1.08162" stroke-linecap="round" stroke-linejoin="round"/>
<path d="M329.77 330.68L317.94 304.12C317.433 302.979 316.524 302.065 315.386 301.55C314.249 301.036 312.962 300.957 311.77 301.33C310.541 301.707 309.501 302.536 308.859 303.649C308.217 304.762 308.021 306.078 308.31 307.33L316.1 342.25L329.77 330.68Z" fill="#263238" stroke="#263238" stroke-width="1.08162" stroke-linecap="round" stroke-linejoin="round"/>
<path d="M333.73 290L307.89 350.79L338.89 355.05C338.89 355.05 357.43 336.2 369.89 300.34L333.73 290Z" fill="#ADADAD" stroke="#263238" stroke-width="1.08162" stroke-linecap="round" stroke-linejoin="round"/>
<path d="M333.73 289.95L332.51 284.18L306.67 346.18L307.89 350.74L333.73 289.95Z" fill="white" stroke="#263238" stroke-width="1.08162" stroke-linecap="round" stroke-linejoin="round"/>
<path d="M332.51 284.18L367.77 294.81L369.9 300.29L333.73 289.95L332.51 284.18Z" fill="white" stroke="#263238" stroke-width="1.08162" stroke-linecap="round" stroke-linejoin="round"/>
<path d="M367.46 306.06L331.9 295.12" stroke="#263238" stroke-width="1.08162" stroke-linecap="round" stroke-linejoin="round"/>
<path d="M364.73 312.44L328.86 302.72" stroke="#263238" stroke-width="1.08162" stroke-linecap="round" stroke-linejoin="round"/>
<path d="M361.99 319.13L325.82 309.41" stroke="#263238" stroke-width="1.08162" stroke-linecap="round" stroke-linejoin="round"/>
<path d="M358.04 327.34L322.78 317" stroke="#263238" stroke-width="1.08162" stroke-linecap="round" stroke-linejoin="round"/>
<path d="M354.3 333.86L319.14 324.6" stroke="#263238" stroke-width="1.08162" stroke-linecap="round" stroke-linejoin="round"/>
<path d="M350.44 339.82L316.1 331.59" stroke="#263238" stroke-width="1.08162" stroke-linecap="round" stroke-linejoin="round"/>
<path d="M346 345.55L313.97 337.98" stroke="#263238" stroke-width="1.08162" stroke-linecap="round" stroke-linejoin="round"/>
<path d="M342.84 350.23L311.03 344.97" stroke="#263238" stroke-width="1.08162" stroke-linecap="round" stroke-linejoin="round"/>
<path d="M357.28 238.01L360.64 239.48" stroke="#263238" stroke-width="1.08162" stroke-miterlimit="10"/>
<path d="M355.18 239.27L358.54 244.52" stroke="#263238" stroke-width="1.08162" stroke-miterlimit="10"/>
<path d="M353.29 239.48L352.66 242.84" stroke="#263238" stroke-width="1.08162" stroke-miterlimit="10"/>
<path d="M361.48 217.65H369.66" stroke="#263238" stroke-width="1.08162" stroke-miterlimit="10"/>
<path d="M355.18 218.07L366.93 221.43" stroke="#263238" stroke-width="1.08162" stroke-miterlimit="10"/>
<path d="M359.59 213.67L367.14 212.62" stroke="#263238" stroke-width="1.08162" stroke-miterlimit="10"/>
<path d="M332.51 239.69L334.61 245.78" stroke="#263238" stroke-width="1.08162" stroke-miterlimit="10"/>
<path d="M335.24 239.27L341.11 248.93" stroke="#263238" stroke-width="1.08162" stroke-miterlimit="10"/>
<path d="M337.34 233.61L343 235.5" stroke="#263238" stroke-width="1.08162" stroke-miterlimit="10"/>
<path d="M368.61 230.46L366.72 232.52L368.09 234.96L365.54 233.79L363.65 235.85L363.97 233.07L361.43 231.9L364.17 231.35L364.5 228.57L365.87 231.01L368.61 230.46Z" fill="#EE3533" stroke="#263238" stroke-width="0.540812" stroke-linecap="round" stroke-linejoin="round"/>
<path d="M371.55 202.75L369.65 204.81L371.03 207.25L368.48 206.08L366.59 208.14L366.91 205.36L364.37 204.19L367.11 203.64L367.43 200.86L368.81 203.3L371.55 202.75Z" fill="#EE3533" stroke="#263238" stroke-width="0.540812" stroke-linecap="round" stroke-linejoin="round"/>
<path d="M340.9 251.24L339.01 253.3L340.38 255.74L337.84 254.57L335.94 256.63L336.26 253.85L333.72 252.68L336.46 252.13L336.79 249.35L338.16 251.79L340.9 251.24Z" fill="#EE3533" stroke="#263238" stroke-width="0.540812" stroke-linecap="round" stroke-linejoin="round"/>
<path d="M250.3 205.45C258.093 205.45 264.41 199.204 264.41 191.5C264.41 183.796 258.093 177.55 250.3 177.55C242.507 177.55 236.19 183.796 236.19 191.5C236.19 199.204 242.507 205.45 250.3 205.45Z" fill="#ADADAD" stroke="#263238" stroke-width="1.08162" stroke-linecap="round" stroke-linejoin="round"/>
<path d="M311.79 201.64C319.583 201.64 325.9 195.394 325.9 187.69C325.9 179.986 319.583 173.74 311.79 173.74C303.997 173.74 297.68 179.986 297.68 187.69C297.68 195.394 303.997 201.64 311.79 201.64Z" fill="#ADADAD" stroke="#263238" stroke-width="1.08162" stroke-linecap="round" stroke-linejoin="round"/>
<path d="M283.42 233.97C293.223 233.97 301.17 226.377 301.17 217.01C301.17 207.643 293.223 200.05 283.42 200.05C273.617 200.05 265.67 207.643 265.67 217.01C265.67 226.377 273.617 233.97 283.42 233.97Z" fill="#EE3533" stroke="#263238" stroke-width="1.08162" stroke-linecap="round" stroke-linejoin="round"/>
<path d="M270.43 208.3L272.88 219.06C273.612 221.727 275.263 224.049 277.541 225.618C279.819 227.186 282.577 227.898 285.33 227.63C288.081 227.363 290.65 226.135 292.585 224.161C294.52 222.188 295.697 219.596 295.91 216.84L296.74 206.08L270.43 208.3Z" fill="#263238" stroke="#263238" stroke-width="1.08162" stroke-linecap="round" stroke-linejoin="round"/>
<path d="M254.26 162.97L247.61 189.6L313.85 184.21L304.03 158.85L254.26 162.97Z" fill="white" stroke="#263238" stroke-width="1.08162" stroke-linecap="round" stroke-linejoin="round"/>
<path d="M247.61 189.6L259.33 218.76L311.32 213.69L313.85 184.21L247.61 189.6Z" fill="#E5E5E5" stroke="#263238" stroke-width="1.08162" stroke-linecap="round" stroke-linejoin="round"/>
<path d="M277.4 201.49C277.22 205.63 273.6 208.89 269.27 209.22C264.94 209.55 260.7 206.84 259.77 202.74C258.77 198.04 262.28 193.42 267.83 193.07C273.38 192.72 277.59 196.77 277.4 201.49Z" fill="#EE3533" stroke="#263238" stroke-width="1.08162" stroke-linecap="round" stroke-linejoin="round"/>
<path d="M274.09 201.72C274.036 203.029 273.492 204.269 272.566 205.196C271.639 206.122 270.399 206.666 269.09 206.72C267.761 206.864 266.426 206.514 265.339 205.738C264.251 204.962 263.486 203.813 263.19 202.51C262.7 199.67 264.93 197 268.19 196.78C268.905 196.7 269.628 196.766 270.317 196.974C271.006 197.181 271.645 197.526 272.197 197.988C272.748 198.45 273.2 199.019 273.526 199.66C273.851 200.301 274.043 201.002 274.09 201.72Z" fill="white" stroke="#263238" stroke-width="1.08162" stroke-linecap="round" stroke-linejoin="round"/>
<path d="M306.87 198.64C306.7 202.78 303.08 206.04 298.75 206.37C294.42 206.7 290.17 203.99 289.25 199.88C288.2 195.19 291.76 190.57 297.31 190.21C302.86 189.85 307.07 193.92 306.87 198.64Z" fill="#EE3533" stroke="#263238" stroke-width="1.08162" stroke-linecap="round" stroke-linejoin="round"/>
<path d="M303.56 198.87C303.508 200.18 302.965 201.421 302.038 202.348C301.111 203.275 299.87 203.818 298.56 203.87C297.23 204.011 295.895 203.659 294.808 202.881C293.72 202.104 292.956 200.954 292.66 199.65C292.17 196.81 294.4 194.15 297.66 193.93C298.375 193.847 299.1 193.911 299.79 194.117C300.48 194.324 301.12 194.669 301.672 195.131C302.225 195.593 302.677 196.163 303.001 196.806C303.326 197.449 303.516 198.151 303.56 198.87Z" fill="white" stroke="#263238" stroke-width="1.08162" stroke-linecap="round" stroke-linejoin="round"/>
<path d="M277.72 213.51C277.111 213.516 276.523 213.287 276.079 212.869C275.635 212.452 275.37 211.879 275.339 211.27C275.308 210.662 275.513 210.065 275.912 209.604C276.312 209.144 276.873 208.856 277.48 208.8L290.16 207.53C290.783 207.468 291.406 207.655 291.891 208.052C292.375 208.449 292.683 209.022 292.745 209.645C292.807 210.268 292.62 210.891 292.223 211.376C291.826 211.86 291.253 212.168 290.63 212.23L278 213.5L277.72 213.51Z" fill="#263238" stroke="#263238" stroke-width="1.08162" stroke-linecap="round" stroke-linejoin="round"/>
<path d="M255.48 176.07C258.125 176.07 260.27 173.925 260.27 171.28C260.27 168.635 258.125 166.49 255.48 166.49C252.835 166.49 250.69 168.635 250.69 171.28C250.69 173.925 252.835 176.07 255.48 176.07Z" fill="#EE3533" stroke="#263238" stroke-width="1.08162" stroke-linecap="round" stroke-linejoin="round"/>
<path d="M252.52 172.58C254.779 172.58 256.61 170.749 256.61 168.49C256.61 166.231 254.779 164.4 252.52 164.4C250.261 164.4 248.43 166.231 248.43 168.49C248.43 170.749 250.261 172.58 252.52 172.58Z" fill="#EE3533" stroke="#263238" stroke-width="1.08162" stroke-linecap="round" stroke-linejoin="round"/>
<path d="M251.73 164.14C251.728 164.776 251.538 165.398 251.182 165.926C250.827 166.454 250.324 166.866 249.735 167.108C249.147 167.35 248.5 167.412 247.876 167.287C247.252 167.162 246.679 166.854 246.23 166.403C245.78 165.953 245.475 165.379 245.351 164.755C245.228 164.13 245.292 163.483 245.536 162.895C245.78 162.308 246.193 161.805 246.722 161.452C247.251 161.099 247.874 160.91 248.51 160.91C248.934 160.91 249.353 160.994 249.745 161.156C250.136 161.319 250.491 161.557 250.79 161.857C251.09 162.157 251.327 162.513 251.488 162.905C251.649 163.297 251.731 163.716 251.73 164.14Z" fill="#EE3533" stroke="#263238" stroke-width="1.08162" stroke-linecap="round" stroke-linejoin="round"/>
<path d="M247.73 163.01L240.41 156.21" stroke="#263238" stroke-width="1.08162" stroke-linecap="round" stroke-linejoin="round"/>
<path d="M302.52 172.76C305.165 172.76 307.31 170.615 307.31 167.97C307.31 165.325 305.165 163.18 302.52 163.18C299.875 163.18 297.73 165.325 297.73 167.97C297.73 170.615 299.875 172.76 302.52 172.76Z" fill="#EE3533" stroke="#263238" stroke-width="1.08162" stroke-linecap="round" stroke-linejoin="round"/>
<path d="M305.48 169.27C307.739 169.27 309.57 167.439 309.57 165.18C309.57 162.921 307.739 161.09 305.48 161.09C303.221 161.09 301.39 162.921 301.39 165.18C301.39 167.439 303.221 169.27 305.48 169.27Z" fill="#EE3533" stroke="#263238" stroke-width="1.08162" stroke-linecap="round" stroke-linejoin="round"/>
<path d="M306.27 160.83C306.272 161.466 306.463 162.088 306.818 162.616C307.173 163.144 307.676 163.556 308.265 163.798C308.853 164.04 309.5 164.102 310.124 163.977C310.748 163.852 311.321 163.544 311.77 163.093C312.22 162.643 312.525 162.069 312.649 161.445C312.772 160.82 312.708 160.173 312.464 159.585C312.22 158.998 311.807 158.495 311.278 158.142C310.749 157.789 310.126 157.6 309.49 157.6C309.066 157.6 308.647 157.684 308.255 157.846C307.864 158.008 307.509 158.247 307.21 158.547C306.91 158.847 306.673 159.203 306.512 159.595C306.351 159.987 306.269 160.406 306.27 160.83Z" fill="#EE3533" stroke="#263238" stroke-width="1.08162" stroke-linecap="round" stroke-linejoin="round"/>
<path d="M310.27 159.69L317.59 152.9" stroke="#263238" stroke-width="1.08162" stroke-linecap="round" stroke-linejoin="round"/>
<path d="M299.55 335.58C299.55 337.89 298.02 339.76 296.13 339.76C294.24 339.76 292.72 337.89 292.72 335.58C292.72 333.27 294.25 331.4 296.13 331.4C298.01 331.4 299.55 333.27 299.55 335.58Z" fill="white" stroke="#263238" stroke-width="1.08162" stroke-linecap="round" stroke-linejoin="round"/>
<path d="M306.31 339.08H306.05L296.56 337.69C296.111 337.605 295.712 337.351 295.447 336.979C295.182 336.607 295.07 336.147 295.136 335.695C295.202 335.243 295.44 334.834 295.8 334.554C296.161 334.273 296.616 334.143 297.07 334.19L306.56 335.57C307.019 335.614 307.443 335.836 307.741 336.189C308.039 336.541 308.188 336.996 308.155 337.457C308.123 337.917 307.912 338.347 307.567 338.654C307.222 338.961 306.771 339.121 306.31 339.1V339.08Z" fill="white" stroke="#263238" stroke-width="1.08162" stroke-miterlimit="10"/>
<path d="M173.68 355.12C172.44 353.17 172.68 350.77 174.32 349.77C175.96 348.77 178.2 349.52 179.44 351.46C180.68 353.4 180.39 355.81 178.79 356.82C177.19 357.83 174.91 357.07 173.68 355.12Z" fill="white" stroke="#263238" stroke-width="1.08162" stroke-linecap="round" stroke-linejoin="round"/>
<path d="M166.09 355.79C166.163 355.744 166.24 355.704 166.32 355.67L175.08 351.76C175.504 351.593 175.976 351.597 176.398 351.769C176.82 351.942 177.159 352.27 177.344 352.687C177.53 353.103 177.548 353.575 177.394 354.004C177.241 354.433 176.928 354.786 176.52 354.99L167.76 358.9C167.352 359.081 166.891 359.101 166.468 358.957C166.046 358.812 165.694 358.513 165.483 358.12C165.271 357.726 165.217 357.268 165.329 356.836C165.442 356.404 165.714 356.03 166.09 355.79Z" fill="white" stroke="#263238" stroke-width="1.08162" stroke-miterlimit="10"/>
<path d="M400.31 310.32C399.07 308.37 399.36 305.98 400.95 304.97C402.54 303.96 404.83 304.72 406.07 306.66C407.31 308.6 407.02 311.01 405.43 312.02C403.84 313.03 401.54 312.27 400.31 310.32Z" fill="white" stroke="#263238" stroke-width="1.08162" stroke-linecap="round" stroke-linejoin="round"/>
<path d="M392.73 311L392.95 310.88L401.71 306.97C401.924 306.863 402.157 306.8 402.396 306.786C402.634 306.772 402.874 306.806 403.099 306.886C403.324 306.967 403.53 307.092 403.706 307.255C403.881 307.417 404.022 307.614 404.119 307.832C404.216 308.05 404.268 308.286 404.272 308.525C404.276 308.764 404.231 309.002 404.141 309.223C404.05 309.444 403.916 309.645 403.745 309.813C403.575 309.981 403.373 310.113 403.15 310.2L394.4 314.11C393.992 314.291 393.531 314.311 393.108 314.167C392.686 314.022 392.334 313.723 392.123 313.33C391.911 312.936 391.857 312.478 391.969 312.046C392.082 311.614 392.354 311.24 392.73 311Z" fill="white" stroke="#263238" stroke-width="1.08162" stroke-miterlimit="10"/>
<path d="M231.18 357C227.18 357 223.96 358.92 223.96 361.28C223.96 363.64 227.19 365.56 231.18 365.56C235.17 365.56 238.41 363.64 238.41 361.28C238.41 358.92 235.17 357 231.18 357ZM231.18 363.49C229.12 363.49 227.45 362.49 227.45 361.28C227.45 360.07 229.12 359.07 231.18 359.07C233.24 359.07 234.92 360.07 234.92 361.28C234.92 362.49 233.25 363.49 231.18 363.49Z" fill="white" stroke="#263238" stroke-width="1.08162" stroke-miterlimit="10"/>
<path d="M296.26 357.69L291.33 355.69L286.39 357.69L285.17 362.09L288.59 365.62H294.07L297.48 362.09L296.26 357.69ZM292.72 363.31H289.94L288.2 361.52L288.82 359.29L291.33 358.29L293.83 359.29L294.45 361.52L292.72 363.31Z" fill="white" stroke="#263238" stroke-width="1.08162" stroke-linecap="round" stroke-linejoin="round"/>
<path d="M389.82 293.8L384.88 291.8L379.94 293.8L378.72 298.21L382.14 301.74H387.62L391.04 298.21L389.82 293.8ZM386.27 299.43H383.49L381.76 297.64L382.37 295.4L384.88 294.4L387.39 295.4L388.01 297.64L386.27 299.43Z" fill="white" stroke="#263238" stroke-width="1.08162" stroke-linecap="round" stroke-linejoin="round"/>
<path d="M329.27 367.73C329.13 367.73 328.992 367.707 328.86 367.66C328.188 367.377 327.622 366.891 327.24 366.27C326.69 365.42 326.24 363.91 327.11 361.57C327.415 360.714 327.925 359.946 328.597 359.334C329.268 358.722 330.08 358.285 330.96 358.06C332.09 357.787 333.267 357.779 334.4 358.038C335.533 358.296 336.591 358.814 337.49 359.55C337.611 359.648 337.71 359.769 337.784 359.905C337.857 360.042 337.903 360.192 337.918 360.346C337.933 360.501 337.917 360.657 337.871 360.805C337.825 360.953 337.75 361.091 337.65 361.21C337.451 361.451 337.164 361.603 336.853 361.633C336.542 361.663 336.231 361.569 335.99 361.37C335.376 360.881 334.66 360.536 333.895 360.363C333.129 360.19 332.334 360.192 331.57 360.37C331.054 360.503 330.578 360.762 330.185 361.123C329.793 361.484 329.496 361.936 329.32 362.44C328.43 364.79 329.5 365.44 329.72 365.5C330.001 365.625 330.224 365.854 330.341 366.139C330.458 366.424 330.461 366.743 330.35 367.03C330.259 367.24 330.108 367.419 329.916 367.544C329.724 367.668 329.499 367.733 329.27 367.73Z" fill="white" stroke="#263238" stroke-width="1.08162" stroke-linecap="round" stroke-linejoin="round"/>
<path d="M353.65 372.07C353.277 372.072 352.905 372.014 352.55 371.9L333.36 365.65C332.906 365.516 332.484 365.292 332.118 364.992C331.753 364.693 331.451 364.322 331.23 363.904C331.01 363.485 330.876 363.027 330.836 362.555C330.796 362.084 330.85 361.609 330.997 361.16C331.143 360.71 331.378 360.294 331.688 359.937C331.998 359.579 332.376 359.287 332.801 359.079C333.225 358.87 333.687 358.748 334.159 358.721C334.631 358.694 335.104 358.761 335.55 358.92L354.75 365.17C355.547 365.434 356.224 365.974 356.661 366.691C357.097 367.409 357.264 368.258 357.132 369.087C356.999 369.917 356.577 370.672 355.939 371.218C355.301 371.765 354.49 372.067 353.65 372.07Z" fill="white" stroke="#263238" stroke-width="1.08162" stroke-linecap="round" stroke-linejoin="round"/>
<path d="M332.78 365.49C332.78 365.49 333.54 360.61 339.64 360.49" stroke="#263238" stroke-width="1.08162" stroke-linecap="round" stroke-linejoin="round"/>
<path d="M336.89 366.55C336.89 366.55 337.66 361.68 343.75 361.55" stroke="#263238" stroke-width="1.08162" stroke-linecap="round" stroke-linejoin="round"/>
<path d="M340.55 367.92C340.55 367.92 341.31 363.05 347.4 362.92" stroke="#263238" stroke-width="1.08162" stroke-linecap="round" stroke-linejoin="round"/>
<path d="M344.36 369C344.36 369 345.12 364.13 351.21 364" stroke="#263238" stroke-width="1.08162" stroke-linecap="round" stroke-linejoin="round"/>
<path d="M348.17 370.36C348.17 370.36 348.93 365.49 355.02 365.36" stroke="#263238" stroke-width="1.08162" stroke-linecap="round" stroke-linejoin="round"/>
<path d="M353.64 372C353.503 371.998 353.367 371.971 353.24 371.92C352.565 371.643 351.994 371.16 351.61 370.54C351.06 369.69 350.61 368.18 351.48 365.83C351.788 364.976 352.299 364.21 352.97 363.598C353.641 362.986 354.451 362.548 355.33 362.32C356.46 362.048 357.638 362.042 358.771 362.303C359.904 362.563 360.962 363.082 361.86 363.82C361.981 363.918 362.08 364.039 362.154 364.175C362.227 364.312 362.273 364.462 362.288 364.616C362.303 364.771 362.287 364.927 362.241 365.075C362.195 365.223 362.12 365.361 362.02 365.48C361.821 365.721 361.534 365.873 361.223 365.903C360.912 365.933 360.601 365.839 360.36 365.64C359.747 365.15 359.031 364.805 358.265 364.632C357.499 364.459 356.704 364.462 355.94 364.64C355.424 364.77 354.947 365.026 354.555 365.386C354.162 365.745 353.865 366.197 353.69 366.7C352.8 369.06 353.87 369.7 354.09 369.76C354.338 369.869 354.542 370.059 354.668 370.299C354.793 370.539 354.833 370.815 354.781 371.081C354.728 371.347 354.587 371.587 354.379 371.761C354.172 371.935 353.911 372.034 353.64 372.04V372Z" fill="white" stroke="#263238" stroke-width="1.08162" stroke-linecap="round" stroke-linejoin="round"/>
</svg>
