<svg width="100" height="100" viewBox="0 0 100 100" fill="none" xmlns="http://www.w3.org/2000/svg">
<path d="M36.6666 74.3333H64.6666M36.6666 55.6667H64.6666M36.6666 37H41.3333M55.3333 9H32.9333C27.7061 9 25.0925 9 23.096 10.0173C21.3398 10.9121 19.912 12.3399 19.0172 14.0961C17.9999 16.0926 17.9999 18.7062 17.9999 23.9333V78.0667C17.9999 83.2938 17.9999 85.9076 19.0172 87.904C19.912 89.6601 21.3398 91.0881 23.096 91.9827C25.0925 93 27.7061 93 32.9333 93H68.3999C73.6271 93 76.2409 93 78.2373 91.9827C79.9933 91.0881 81.4213 89.6601 82.3159 87.904C83.3333 85.9076 83.3333 83.2938 83.3333 78.0667V37M55.3333 9L83.3333 37M55.3333 9V29.5333C55.3333 32.1469 55.3333 33.4537 55.8419 34.452C56.2895 35.33 57.003 36.0439 57.8813 36.4914C58.8795 37 60.1861 37 62.7999 37H83.3333" stroke="#EE3533" stroke-width="6" stroke-linecap="round" stroke-linejoin="round"/>
</svg>
